<?xml version="1.0" standalone="no"?>
<!DOCTYPE svg PUBLIC "-//W3C//DTD SVG 20010904//EN"
 "http://www.w3.org/TR/2001/REC-SVG-20010904/DTD/svg10.dtd">
<svg version="1.0" xmlns="http://www.w3.org/2000/svg"
 width="699.000000pt" height="699.000000pt" viewBox="0 0 699.000000 699.000000"
 preserveAspectRatio="xMidYMid meet">
<metadata>
Created by potrace 1.11, written by Peter Selinger 2001-2013
</metadata>
<g transform="translate(0.000000,699.000000) scale(0.100000,-0.100000)"
fill="#000000" stroke="none">
<path d="M1340 6567 c-3 -2 -27 -7 -55 -10 -100 -11 -287 -60 -330 -86 -5 -3
-12 -6 -15 -6 -41 -5 -287 -153 -365 -220 -131 -113 -275 -283 -347 -410 -17
-30 -90 -176 -93 -185 -1 -3 -7 -18 -13 -33 -7 -16 -12 -32 -12 -36 0 -5 -8
-30 -19 -57 -23 -61 -39 -112 -45 -144 -2 -14 -7 -36 -10 -50 -23 -100 -31
-184 -31 -345 0 -159 5 -217 29 -350 20 -109 82 -287 143 -410 38 -75 143
-248 162 -265 3 -3 30 -34 60 -69 30 -35 77 -84 105 -110 27 -25 57 -53 66
-61 17 -16 36 -31 120 -87 30 -21 57 -40 60 -44 9 -12 215 -107 260 -120 55
-16 52 -14 125 -119 33 -47 63 -86 67 -88 5 -2 8 -10 8 -18 0 -8 3 -14 8 -14
4 0 23 -25 42 -55 19 -30 38 -55 43 -55 4 0 7 -7 7 -15 0 -7 6 -18 13 -22 6
-4 21 -21 32 -37 l20 -28 240 2 c373 4 375 4 380 -2 5 -4 -18 -76 -53 -168 -3
-8 -6 -17 -7 -20 -3 -12 -27 -86 -32 -100 -4 -8 -7 -18 -8 -22 -2 -5 -4 -10
-5 -13 -1 -3 -3 -8 -4 -12 -7 -30 -80 -240 -87 -249 -13 -16 -2 -23 29 -18 31
4 129 11 247 19 44 2 100 7 125 9 136 15 190 17 190 6 0 -11 -82 -246 -115
-330 -17 -43 -71 -197 -79 -226 -6 -20 -4 -22 41 -19 81 5 236 16 283 20 25 2
83 7 130 10 47 3 107 8 133 10 30 3 47 1 47 -6 0 -9 -38 -112 -60 -164 -28
-64 -70 -171 -70 -177 0 -5 -9 -27 -19 -51 -10 -23 -26 -62 -36 -87 -9 -25
-25 -66 -35 -91 l-19 -46 57 3 c31 2 149 6 262 9 113 4 234 7 270 9 36 1 68 1
71 0 3 -2 -5 -43 -18 -91 -13 -48 -26 -96 -28 -106 -2 -10 -7 -27 -10 -37 -3
-10 -8 -27 -10 -37 -2 -10 -19 -74 -38 -143 -35 -127 -50 -181 -51 -190 -1 -3
-5 -11 -9 -17 -5 -7 -6 -13 -2 -13 3 0 1 -9 -4 -19 -8 -14 -7 -22 4 -31 8 -7
15 -10 15 -7 0 3 26 -2 58 -10 31 -8 65 -17 75 -19 22 -5 25 -6 182 -44 72
-18 135 -33 140 -35 27 -6 73 -17 105 -25 96 -25 168 -42 193 -46 15 -2 35 -8
45 -13 9 -5 83 -10 164 -10 l147 -2 7 28 c3 15 9 37 12 48 3 11 7 25 8 30 1 6
10 39 19 75 9 36 18 70 20 75 1 6 4 17 7 25 6 16 65 242 73 275 2 11 29 114
60 229 l56 209 -57 83 c-32 46 -63 89 -71 95 -7 6 -13 15 -13 20 0 5 -7 17
-15 26 -8 10 -53 72 -99 138 -47 66 -89 125 -94 130 -5 6 -24 33 -43 60 -60
87 -333 470 -339 475 -3 3 -9 12 -15 21 -10 16 -99 143 -129 184 -20 27 -182
255 -198 279 -7 10 -18 24 -23 30 -6 6 -18 23 -27 37 -16 25 -16 28 1 43 10 9
21 16 24 16 4 0 44 23 89 51 44 28 96 60 115 70 19 11 45 27 59 35 22 15 24
15 25 -2 1 -11 3 -28 4 -39 2 -11 6 -42 9 -70 3 -27 7 -61 10 -75 2 -14 7 -50
10 -80 10 -91 17 -144 20 -166 2 -11 7 -52 11 -90 4 -38 9 -72 11 -76 3 -4 43
17 90 45 46 29 93 57 103 62 77 43 267 162 273 170 4 5 8 7 8 2 0 -4 18 5 40
19 22 15 43 25 46 22 2 -3 7 -33 9 -66 4 -57 8 -109 21 -232 2 -30 7 -84 9
-120 2 -36 5 -65 6 -65 2 0 6 -44 9 -100 5 -77 6 -77 63 -46 29 15 84 45 122
65 39 21 93 51 120 66 133 74 172 95 200 108 17 9 42 24 58 34 30 22 29 23 46
-57 33 -157 71 -344 75 -368 3 -15 7 -35 10 -45 3 -9 7 -33 10 -52 3 -19 10
-50 15 -69 6 -18 10 -36 9 -40 -1 -3 1 -15 5 -27 l7 -20 93 23 c50 13 102 26
115 28 50 11 72 16 177 40 125 29 112 26 227 54 48 11 98 23 110 25 13 2 43 9
68 15 25 7 54 14 65 16 11 3 34 8 50 12 17 4 32 7 35 8 3 1 41 9 85 19 44 10
83 20 86 22 3 2 -5 52 -18 111 -12 59 -25 119 -28 133 -2 14 -14 68 -25 120
-25 117 -50 238 -55 265 -8 40 -17 82 -36 170 -12 50 -23 101 -25 115 -2 14
-9 46 -15 71 -6 26 -12 54 -13 64 -3 19 -15 26 -516 288 -63 33 -140 73 -170
90 -30 16 -120 64 -200 105 -80 42 -185 98 -235 124 -49 26 -135 70 -190 99
-55 28 -122 64 -150 79 -27 15 -108 58 -180 95 -210 109 -319 167 -338 180
-16 11 -16 14 6 46 13 19 26 41 30 49 4 8 13 24 20 35 7 11 35 58 63 105 29
47 61 100 71 119 10 19 24 36 29 38 6 2 55 -61 109 -139 55 -79 102 -145 105
-148 3 -3 10 -13 15 -22 44 -73 122 -177 132 -175 6 1 83 121 171 267 143 236
182 293 182 262 0 -5 50 -85 111 -178 61 -93 128 -196 150 -229 21 -33 43 -65
49 -72 5 -7 10 -16 10 -21 0 -5 8 -16 18 -25 17 -15 26 -3 172 219 85 129 160
240 165 247 6 7 18 25 28 40 l19 29 21 -29 c12 -17 29 -36 37 -45 8 -8 26 -30
40 -48 14 -18 30 -38 35 -44 6 -6 71 -85 145 -176 180 -221 166 -206 187 -189
26 20 205 174 243 209 9 8 45 39 81 69 35 30 71 61 79 70 8 9 35 32 60 52 25
20 56 47 71 60 14 13 54 49 89 79 36 30 76 65 89 77 14 12 48 41 77 65 29 24
55 48 57 54 3 6 -9 26 -27 45 -17 19 -49 57 -71 84 -22 28 -42 52 -45 55 -5 4
-209 250 -471 566 l-76 91 -1766 -2 c-972 -1 -1770 1 -1775 4 -4 3 -30 42 -56
86 -173 286 -441 520 -716 624 -41 15 -84 32 -95 36 -11 4 -24 9 -30 11 -24 6
-63 14 -110 24 -27 6 -61 13 -75 16 -34 7 -314 17 -320 11z m2297 -2025 c50
-69 90 -128 88 -130 -2 -2 -18 6 -34 18 -17 12 -31 19 -31 16 0 -3 -21 7 -47
22 -27 16 -71 39 -100 53 -37 17 -51 28 -47 39 7 20 68 109 74 110 3 0 46 -58
97 -128z m-579 -1034 c1 -18 5 -54 10 -80 5 -27 8 -48 6 -48 -1 0 -23 29 -48
65 l-45 65 27 14 c40 22 49 19 50 -16z"/>
</g>
</svg>
