<?xml version="1.0" encoding="UTF-8" standalone="no"?>
<!-- Created with Inkscape (http://www.inkscape.org/) -->

<svg
   xmlns:dc="http://purl.org/dc/elements/1.1/"
   xmlns:cc="http://creativecommons.org/ns#"
   xmlns:rdf="http://www.w3.org/1999/02/22-rdf-syntax-ns#"
   xmlns:svg="http://www.w3.org/2000/svg"
   xmlns="http://www.w3.org/2000/svg"
   xmlns:sodipodi="http://sodipodi.sourceforge.net/DTD/sodipodi-0.dtd"
   xmlns:inkscape="http://www.inkscape.org/namespaces/inkscape"
   width="200mm"
   height="200mm"
   viewBox="0 0 708.66139 708.66127"
   id="svg2"
   version="1.1"
   inkscape:version="0.91 r13725"
   sodipodi:docname="key-logosvg.svg">
  <defs
     id="defs4" />
  <sodipodi:namedview
     id="base"
     pagecolor="#ffffff"
     bordercolor="#666666"
     borderopacity="1.0"
     inkscape:pageopacity="0.0"
     inkscape:pageshadow="2"
     inkscape:zoom="0.49497475"
     inkscape:cx="305.23655"
     inkscape:cy="349.55023"
     inkscape:document-units="px"
     inkscape:current-layer="layer1"
     showgrid="true"
     inkscape:window-width="1276"
     inkscape:window-height="755"
     inkscape:window-x="4"
     inkscape:window-y="1"
     inkscape:window-maximized="1">
    <inkscape:grid
       type="xygrid"
       id="grid4182" />
  </sodipodi:namedview>
  <metadata
     id="metadata7">
    <rdf:RDF>
      <cc:Work
         rdf:about="">
        <dc:format>image/svg+xml</dc:format>
        <dc:type
           rdf:resource="http://purl.org/dc/dcmitype/StillImage" />
        <dc:title></dc:title>
      </cc:Work>
    </rdf:RDF>
  </metadata>
  <g
     inkscape:label="Layer 1"
     inkscape:groupmode="layer"
     id="layer1"
     transform="translate(0,-343.70099)"
     style="display:inline">
    <g
       transform="matrix(1.3929124,0,0,1.5149254,-62.704177,-443.63513)"
       id="g4245">
      <circle
         r="105.05586"
         cy="710.93066"
         cx="153.5432"
         id="circle4247"
         style="fill:#646464;fill-opacity:1;fill-rule:evenodd;stroke:none;stroke-width:1px;stroke-linecap:butt;stroke-linejoin:miter;stroke-opacity:1" />
      <path
         sodipodi:nodetypes="cccccccccccccc"
         inkscape:connector-curvature="0"
         id="path4249"
         d="m 239.55406,659.86118 260.61938,-0.29586 50.19689,55.45686 -62.57434,49.85026 -32.31002,-36.11602 -26.50907,36.72262 -26.29986,-37.14285 -24.37673,36.99673 -25.74401,-33.98551 -22.30823,34.25418 -27.17694,-34.52901 -25.78428,34.17187 -38.3858,0 z"
         style="fill:#646464;fill-opacity:1;fill-rule:evenodd;stroke:none;stroke-width:1px;stroke-linecap:butt;stroke-linejoin:miter;stroke-opacity:1" />
    </g>
    <g
       transform="matrix(1.3929124,0,0,1.5149254,-17.678454,70.54752)"
       id="g4265">
      <circle
         r="105.05586"
         cy="391.7225"
         cx="121.21832"
         id="circle4267"
         style="fill:#ffffff;fill-opacity:1;fill-rule:evenodd;stroke:none;stroke-width:1px;stroke-linecap:butt;stroke-linejoin:miter;stroke-opacity:1" />
      <path
         sodipodi:nodetypes="cccccccccccccc"
         inkscape:connector-curvature="0"
         id="path4269"
         d="m 207.22918,340.65301 260.61938,-0.29586 50.19689,55.45686 -62.57434,49.85026 -32.31002,-36.11602 -26.50907,36.72262 -26.29986,-37.14285 -24.37673,36.99673 -25.74401,-33.98551 -22.30823,34.25418 -27.17694,-34.52901 -25.78428,34.17187 -38.3858,0 z"
         style="fill:#ffffff;fill-opacity:1;fill-rule:evenodd;stroke:none;stroke-width:1px;stroke-linecap:butt;stroke-linejoin:miter;stroke-opacity:1" />
    </g>
    <g
       id="g4236"
       transform="matrix(1.3929124,0,0,1.5149254,-20.492562,-18.210197)">
      <circle
         style="fill:#323232;fill-opacity:1;fill-rule:evenodd;stroke:none;stroke-width:1px;stroke-linecap:butt;stroke-linejoin:miter;stroke-opacity:1"
         id="circle4232"
         cx="121.21832"
         cy="458.39255"
         r="105.05586" />
      <path
         style="fill:#323232;fill-opacity:1;fill-rule:evenodd;stroke:none;stroke-width:1px;stroke-linecap:butt;stroke-linejoin:miter;stroke-opacity:1"
         d="m 207.22919,407.32307 260.61938,-0.29586 50.19689,55.45686 -62.57434,49.85026 -32.31002,-36.11602 -26.50907,36.72262 -26.29986,-37.14285 -24.37673,36.99673 -25.74401,-33.98551 -22.30823,34.25418 -27.17694,-34.52901 -25.78428,34.17187 -38.3858,0 z"
         id="path4234"
         inkscape:connector-curvature="0"
         sodipodi:nodetypes="cccccccccccccc" />
    </g>
    <g
       id="g4251"
       transform="matrix(1.3929124,0,0,1.5149254,-20.492562,116.4567)">
      <circle
         style="fill:#ffffff;fill-opacity:1;fill-rule:evenodd;stroke:none;stroke-width:1px;stroke-linecap:butt;stroke-linejoin:miter;stroke-opacity:1"
         id="circle4253"
         cx="121.21832"
         cy="391.7225"
         r="105.05586" />
      <path
         style="fill:#ffffff;fill-opacity:1;fill-rule:evenodd;stroke:none;stroke-width:1px;stroke-linecap:butt;stroke-linejoin:miter;stroke-opacity:1"
         d="m 207.22918,340.65301 260.61938,-0.29586 50.19689,55.45686 -62.57434,49.85026 -32.31002,-36.11602 -26.50907,36.72262 -26.29986,-37.14285 -24.37673,36.99673 -25.74401,-33.98551 -22.30823,34.25418 -27.17694,-34.52901 -25.78428,34.17187 -38.3858,0 z"
         id="path4255"
         inkscape:connector-curvature="0"
         sodipodi:nodetypes="cccccccccccccc" />
    </g>
    <g
       id="g4240"
       transform="matrix(1.3929124,0,0,1.5149254,-26.120783,-321.2107)">
      <circle
         r="105.05586"
         cy="690.7276"
         cx="125.25893"
         id="path3336"
         style="fill:#29b6f6;fill-opacity:1;fill-rule:evenodd;stroke:none;stroke-width:1px;stroke-linecap:butt;stroke-linejoin:miter;stroke-opacity:1" />
      <ellipse
         ry="25.945831"
         rx="26.955984"
         cy="688.7074"
         cx="71.720833"
         id="path4138"
         style="fill:#ffffff;fill-opacity:1;fill-rule:evenodd;stroke:#000000;stroke-width:1.63626802px;stroke-linecap:butt;stroke-linejoin:miter;stroke-opacity:1" />
      <path
         sodipodi:nodetypes="cccccccccccccc"
         inkscape:connector-curvature="0"
         id="path4142"
         d="m 211.2698,639.65813 260.61938,-0.29586 50.19689,55.45686 -62.57434,49.85026 -32.31002,-36.11602 -26.50907,36.72262 -26.29986,-37.14285 -24.37673,36.99673 -25.74401,-33.98551 -22.30823,34.25418 -27.17694,-34.52901 -25.78428,34.17187 -38.3858,0 z"
         style="fill:#29b6f6;fill-opacity:1;fill-rule:evenodd;stroke:none;stroke-width:1px;stroke-linecap:butt;stroke-linejoin:miter;stroke-opacity:1" />
    </g>
  </g>
</svg>
