<?xml version="1.0" encoding="UTF-8" standalone="no"?>
<!-- Created with Inkscape (http://www.inkscape.org/) -->

<svg
   xmlns:dc="http://purl.org/dc/elements/1.1/"
   xmlns:cc="http://creativecommons.org/ns#"
   xmlns:rdf="http://www.w3.org/1999/02/22-rdf-syntax-ns#"
   xmlns:svg="http://www.w3.org/2000/svg"
   xmlns="http://www.w3.org/2000/svg"
   xmlns:sodipodi="http://sodipodi.sourceforge.net/DTD/sodipodi-0.dtd"
   xmlns:inkscape="http://www.inkscape.org/namespaces/inkscape"
   width="199.1181"
   height="225.24409"
   viewBox="0 0 199.1181 225.2441"
   id="svg2"
   version="1.1"
   inkscape:version="0.91 r13725"
   sodipodi:docname="twistpass-logo-blue.svg">
  <defs
     id="defs4" />
  <sodipodi:namedview
     id="base"
     pagecolor="#ffffff"
     bordercolor="#666666"
     borderopacity="1.0"
     inkscape:pageopacity="0.0"
     inkscape:pageshadow="2"
     inkscape:zoom="3.959798"
     inkscape:cx="106.75545"
     inkscape:cy="157.32455"
     inkscape:document-units="px"
     inkscape:current-layer="layer1"
     showgrid="false"
     inkscape:window-width="1436"
     inkscape:window-height="855"
     inkscape:window-x="5"
     inkscape:window-y="0"
     inkscape:window-maximized="0"
     units="px"
     borderlayer="true" />
  <metadata
     id="metadata7">
    <rdf:RDF>
      <cc:Work
         rdf:about="">
        <dc:format>image/svg+xml</dc:format>
        <dc:type
           rdf:resource="http://purl.org/dc/dcmitype/StillImage" />
        <dc:title />
      </cc:Work>
    </rdf:RDF>
  </metadata>
  <g
     inkscape:label="Layer 1"
     inkscape:groupmode="layer"
     id="layer1"
     transform="translate(0,-827.11809)">
    <path
       style="fill:#ff9800;fill-opacity:1;fill-rule:evenodd;stroke:#000000;stroke-width:1px;stroke-linecap:butt;stroke-linejoin:miter;stroke-opacity:1"
       d="m 145.08316,1049.7106 c 17.58767,-0.1792 19.84991,-7.8252 19.5717,-28.6631 0.28861,-33.32621 -0.50508,-38.05456 -0.50508,-68.56411 -0.65855,-3.57872 0.59181,-14.40311 -3.91434,-19.19291 -4.92755,-4.85758 -14.5561,-11.72305 -25.25381,-14.14215 -11.45168,-3.21662 -20.29205,-5.50028 -32.45116,-9.59644 -4.448405,-1.88138 -15.091955,-4.71963 -24.048674,-7.56346 -8.754282,-3.38224 -16.376816,-7.9651 -16.740846,-16.25807 -0.232754,-8.41362 0.06592,-15.51544 -0.191268,-23.61231 -0.0046,-5.82402 -0.126269,-8.46003 2.137616,-12.0262 3.856784,-5.09845 12.490287,-3.40457 20.660437,-3.40927 8.827898,0.0756 27.244755,0.0675 35.786445,0.12627 11.15921,0.014 13.94568,-0.50106 19.26687,2.95648 2.7527,3.91859 3.01482,7.48048 3.12062,12.29175 0.12523,5.69476 0.18155,23.05503 0.16237,29.18579 -14.19223,-0.29681 -25.39323,-1.26269 -38.38579,-1.26269 22.41673,7.74116 39.96408,14.50751 49.77802,26.27928 9.34223,-12.17496 22.76684,-18.52277 43.156,-27.54197 -9.98461,0.19289 -23.64546,0.52881 -33.33502,0.50508 -0.24027,-6.34061 -0.25254,-28.03254 -0.25254,-34.72399 -0.54758,-8.19091 -1.03463,-15.71096 -5.17703,-19.82425 -7.00594,-6.36941 -14.30347,-6.13142 -19.44543,-6.31346 -23.38307,0.60408 -53.357263,0.0407 -73.516433,0.50508 -13.465399,-0.44507 -16.36319,1.33401 -20.401741,4.6899 -6.004496,6.10291 -6.533894,10.67545 -6.374724,27.23451 -0.325589,17.41164 0.825846,22.74196 0.378796,40.76325 -0.75735,9.55472 6.256938,10.00012 12.518588,12.9265 18.11599,7.47643 39.093687,13.45293 56.964654,18.6841 12.85512,4.00364 28.87351,8.11998 33.71385,13.63707 3.87995,2.59835 2.24461,13.74148 2.27283,14.39467 -0.17064,24.22312 0.88389,28.57789 0.88389,51.77035 0.22125,7.7943 -3.02241,15.9498 -9.09137,16.1624 -16.59305,-0.673 -43.653549,0 -66.038719,0 -15.87013,-0.441 -15.10895,-5.336 -15.78364,-17.1726 0.6393,-22.82703 -1.19271,-44.31717 -1.01015,-62.12437 9.14395,-2.53196 24.19572,-1.51523 35.35534,-1.51523 -19.711321,1.73828 -39.48286,-13.17808 -46.84582,-23.61232 -6.850205,10.49911 -24.698826,19.91468 -41.28998636,25.25383 10.56924036,0.81379 21.60817036,-1.15271 29.54696036,0.50506 2.78048,8.94117 -1.09332,66.28533 -0.88388,73.86743 0.17386,23.1178 7.279195,25.159 23.107235,25.5063 31.93279,1.3977 61.97001,1.7942 92.55523,-0.1262 z"
       id="path3339"
       inkscape:connector-curvature="0"
       sodipodi:nodetypes="cccccccccccccscccccccccccccccccccccccccccc" />
    <path
       style="fill:#000000;fill-opacity:1;fill-rule:evenodd;stroke:#000000;stroke-width:1.25504863px;stroke-linecap:butt;stroke-linejoin:miter;stroke-opacity:1"
       d="m 94.461597,988.82043 c -2.48945,-1.26233 -5.24072,-4.19537 -5.34791,-8.27969 0.60875,-4.29642 3.78008,-10.02126 11.940683,-10.05224 7.88115,0.058 11.27775,6.08696 11.45543,10.01337 0.0602,5.20844 -3.21856,7.61428 -4.70783,8.26514 -1.74138,0.87247 -3.05868,2.00887 -3.07628,3.86133 0.0238,2.25432 -0.13474,3.88145 -0.12519,8.15756 -0.11189,3.5017 -0.11254,4.1432 -0.75857,5.0251 -1.43669,0.834 -0.94096,0.7224 -2.8445,0.7791 -1.958883,-0.095 -2.285303,0.1788 -3.516733,-0.8783 -0.8311,-0.7344 -0.72722,-3.1306 -0.72722,-4.9792 0,0 0.1746,-5.17351 0.11756,-8.27974 -0.11585,-1.07637 -0.54127,-2.31925 -2.40948,-3.63243 z"
       id="path3362"
       inkscape:connector-curvature="0"
       sodipodi:nodetypes="cccccccccccccc" />
  </g>
</svg>
