<?xml version="1.0" encoding="UTF-8" standalone="no"?>
<!-- Created with Inkscape (http://www.inkscape.org/) -->

<svg
   xmlns:dc="http://purl.org/dc/elements/1.1/"
   xmlns:cc="http://creativecommons.org/ns#"
   xmlns:rdf="http://www.w3.org/1999/02/22-rdf-syntax-ns#"
   xmlns:svg="http://www.w3.org/2000/svg"
   xmlns="http://www.w3.org/2000/svg"
   xmlns:sodipodi="http://sodipodi.sourceforge.net/DTD/sodipodi-0.dtd"
   xmlns:inkscape="http://www.inkscape.org/namespaces/inkscape"
   width="210mm"
   height="297mm"
   viewBox="0 0 744.09448819 1052.3622047"
   id="svg2"
   version="1.1"
   inkscape:version="0.91 r13725"
   sodipodi:docname="switchpass-logo.svg">
  <defs
     id="defs4" />
  <sodipodi:namedview
     id="base"
     pagecolor="#ffffff"
     bordercolor="#666666"
     borderopacity="1.0"
     inkscape:pageopacity="0.0"
     inkscape:pageshadow="2"
     inkscape:zoom="0.98994949"
     inkscape:cx="244.85919"
     inkscape:cy="853.10429"
     inkscape:document-units="px"
     inkscape:current-layer="layer1"
     showgrid="false"
     inkscape:window-width="1436"
     inkscape:window-height="855"
     inkscape:window-x="4"
     inkscape:window-y="1"
     inkscape:window-maximized="1" />
  <metadata
     id="metadata7">
    <rdf:RDF>
      <cc:Work
         rdf:about="">
        <dc:format>image/svg+xml</dc:format>
        <dc:type
           rdf:resource="http://purl.org/dc/dcmitype/StillImage" />
        <dc:title></dc:title>
      </cc:Work>
    </rdf:RDF>
  </metadata>
  <g
     inkscape:label="Layer 1"
     inkscape:groupmode="layer"
     id="layer1">
    <path
       style="fill:#1db6f6;fill-rule:evenodd;stroke:#000000;stroke-width:1px;stroke-linecap:butt;stroke-linejoin:miter;stroke-opacity:1;fill-opacity:1"
       d="m 329.94108,402.20277 c 17.58767,-0.17917 19.84991,-7.82516 19.5717,-28.66308 0.28861,-33.32619 -0.50508,-38.05454 -0.50508,-68.56409 -0.65855,-3.57872 2.35958,-22.73687 -3.6618,-27.52666 -4.92755,-4.85758 -14.80864,-8.44005 -25.50635,-10.85915 -11.45168,-3.21662 -19.53443,-4.49013 -31.69354,-8.58629 -4.57156,-1.67613 -10.00988,-4.2256 -17.29886,-9.849 -4.96621,-5.40254 -3.80285,-5.72289 -4.16688,-14.01586 0.52486,-8.28735 0.79098,-10.9758 0.50507,-14.01586 0.25988,-5.13291 -1.85322,-8.74402 2.02032,-15.65737 3.09917,-4.84591 7.23467,-2.77322 11.36421,-3.28299 8.57536,-0.42944 15.70197,-0.18506 24.24366,-0.12627 11.15921,-0.86993 16.39709,-1.94232 21.71828,1.51522 2.7527,3.91859 2.50975,7.16666 2.61555,11.97793 0.12523,5.69476 0.18155,17.49919 0.16237,23.62995 -14.19223,-0.29681 -26.40339,2.02031 -39.39595,2.02031 22.41673,7.74116 39.71154,10.4669 51.29325,22.23867 7.57446,-9.64958 36.15137,-27.10907 42.90347,-26.53182 -9.98461,0.19289 -23.64546,1.28642 -33.33502,1.26269 -0.24027,-6.34061 0.25253,-23.73939 0.25253,-30.43084 -0.54758,-8.19091 1.99583,-16.72111 -2.14657,-20.8344 -6.7534,-6.62195 -6.97987,-5.12127 -12.12183,-5.30331 -23.38307,0.60408 -33.75773,-0.46438 -53.9169,1e-5 -14.72809,0.06 -27.52871,-1.46186 -37.1231,5.42957 -9.54003,8.88083 -6.22008,10.33625 -6.06091,26.89531 -1.58828,17.41164 0.32077,18.3442 -0.12628,36.36549 -0.75735,9.55472 6.23899,13.1098 12.50064,16.03618 18.11599,7.47643 23.79782,9.79485 41.66879,15.02601 12.85512,4.00364 26.60066,7.86744 31.441,13.38453 3.87995,2.59835 3.50731,13.2364 3.53553,13.88959 -0.17064,24.22312 1.6415,34.63881 1.6415,57.83123 0.22125,7.79433 -3.02241,15.94987 -9.09137,16.16244 -16.59305,-0.67298 -43.65355,0 -66.03872,0 -15.87013,-0.44097 -15.10895,-5.33596 -15.78364,-17.17259 0.6393,-22.82704 -1.19271,-46.84256 -1.01015,-64.64976 9.14395,-2.53196 24.19572,-2.02031 35.35534,-2.02031 -19.71132,1.73828 -40.74555,-18.73391 -48.10851,-29.16815 -6.85021,10.49911 -23.43614,25.47051 -40.0273,30.80966 10.56924,0.81379 21.60817,-0.90017 29.54696,0.7576 2.78048,8.94117 -1.09332,69.06329 -0.88388,76.64533 0.17386,23.11779 7.2792,25.15902 23.10724,25.50636 31.93279,1.39763 61.97001,1.79416 92.55523,-0.12628 z"
       id="path3339"
       inkscape:connector-curvature="0"
       sodipodi:nodetypes="cccccccccccccscccccccccccccccccccccccccccc" />
    <path
       style="fill:#000000;fill-opacity:1;fill-rule:evenodd;stroke:#000000;stroke-width:1.25504863px;stroke-linecap:butt;stroke-linejoin:miter;stroke-opacity:1"
       d="m 277.55175,333.98903 c -2.48945,-1.26233 -5.24072,-4.19537 -5.34791,-8.27969 0.60875,-4.29642 3.78008,-10.02126 11.94068,-10.05224 7.88115,0.058 11.27775,6.08696 11.45543,10.01337 0.0602,5.20844 -3.21856,7.61428 -4.70783,8.26514 -1.74138,0.87247 -3.05868,2.00887 -3.07628,3.86133 0.0238,2.25432 -0.13474,3.88145 -0.12519,8.15753 -0.11189,3.50174 -0.11254,4.14319 -0.75857,5.0251 -1.43669,0.83408 -0.94096,0.72247 -2.8445,0.77913 -1.95888,-0.0948 -2.2853,0.17879 -3.51673,-0.87832 -0.8311,-0.73433 -0.72722,-3.13062 -0.72722,-4.97921 0,0 0.1746,-5.17348 0.11756,-8.27971 -0.11585,-1.07637 -0.54127,-2.31925 -2.40948,-3.63243 z"
       id="path3362"
       inkscape:connector-curvature="0"
       sodipodi:nodetypes="cccccccccccccc" />
  </g>
</svg>
