<?xml version="1.0" encoding="UTF-8" standalone="no"?>
<!-- Created with Inkscape (http://www.inkscape.org/) -->

<svg
   xmlns:dc="http://purl.org/dc/elements/1.1/"
   xmlns:cc="http://creativecommons.org/ns#"
   xmlns:rdf="http://www.w3.org/1999/02/22-rdf-syntax-ns#"
   xmlns:svg="http://www.w3.org/2000/svg"
   xmlns="http://www.w3.org/2000/svg"
   xmlns:sodipodi="http://sodipodi.sourceforge.net/DTD/sodipodi-0.dtd"
   xmlns:inkscape="http://www.inkscape.org/namespaces/inkscape"
   width="210mm"
   height="297mm"
   viewBox="0 0 744.09448819 1052.3622047"
   id="svg2"
   version="1.1"
   inkscape:version="0.91 r13725"
   sodipodi:docname="switchpass-logo.svg">
  <defs
     id="defs4" />
  <sodipodi:namedview
     id="base"
     pagecolor="#ffffff"
     bordercolor="#666666"
     borderopacity="1.0"
     inkscape:pageopacity="0.0"
     inkscape:pageshadow="2"
     inkscape:zoom="22.4"
     inkscape:cx="123.64088"
     inkscape:cy="797.85228"
     inkscape:document-units="px"
     inkscape:current-layer="layer1"
     showgrid="false"
     inkscape:window-width="1436"
     inkscape:window-height="855"
     inkscape:window-x="4"
     inkscape:window-y="1"
     inkscape:window-maximized="1" />
  <metadata
     id="metadata7">
    <rdf:RDF>
      <cc:Work
         rdf:about="">
        <dc:format>image/svg+xml</dc:format>
        <dc:type
           rdf:resource="http://purl.org/dc/dcmitype/StillImage" />
        <dc:title></dc:title>
      </cc:Work>
    </rdf:RDF>
  </metadata>
  <g
     inkscape:label="Layer 1"
     inkscape:groupmode="layer"
     id="layer1">
    <path
       style="fill:#ff0000;fill-rule:evenodd;stroke:#000000;stroke-width:1.17262757px;stroke-linecap:butt;stroke-linejoin:miter;stroke-opacity:1"
       d="m 396.23931,695.85625 c 92.26278,0 70.02607,141.98379 71.26537,256.04638 1.23929,114.06257 -46.22233,97.05657 -167.05654,97.05657 -123.69136,0 -167.05655,-12.5762 -167.05655,-105.628 0,-93.05176 -18.31357,-249.49526 73.9492,-249.49526"
       id="path3336"
       inkscape:connector-curvature="0"
       sodipodi:nodetypes="czszc" />
    <path
       style="fill:none;fill-rule:evenodd;stroke:#000000;stroke-width:1px;stroke-linecap:butt;stroke-linejoin:miter;stroke-opacity:1"
       d="m 329.94108,402.20277 c 17.58767,-0.17917 19.84991,-7.82516 19.5717,-28.66308 0.28861,-33.32619 -0.50508,-38.05454 -0.50508,-68.56409 -0.65855,-3.57872 2.35958,-22.73687 -3.6618,-27.52666 -4.92755,-4.85758 -14.80864,-8.44005 -25.50635,-10.85915 -11.45168,-3.21662 -19.53443,-4.49013 -31.69354,-8.58629 -4.57156,-1.67613 -10.00988,-4.2256 -17.29886,-9.849 -4.96621,-5.40254 -3.80285,-5.72289 -4.16688,-14.01586 0.52486,-8.28735 0.79098,-10.9758 0.50507,-14.01586 0.25988,-5.13291 -1.85322,-8.74402 2.02032,-15.65737 3.09917,-4.84591 7.23467,-2.77322 11.36421,-3.28299 8.57536,-0.42944 15.70197,-0.18506 24.24366,-0.12627 11.15921,-0.86993 16.39709,-1.94232 21.71828,1.51522 2.7527,3.91859 2.50975,7.16666 2.61555,11.97793 0.12523,5.69476 0.18155,17.49919 0.16237,23.62995 -14.19223,-0.29681 -26.40339,2.02031 -39.39595,2.02031 22.41673,7.74116 39.71154,10.4669 51.29325,22.23867 7.57446,-9.64958 36.15137,-27.10907 42.90347,-26.53182 -9.98461,0.19289 -23.64546,1.28642 -33.33502,1.26269 -0.24027,-6.34061 0.25253,-23.73939 0.25253,-30.43084 -0.54758,-8.19091 1.99583,-16.72111 -2.14657,-20.8344 -6.7534,-6.62195 -6.97987,-5.12127 -12.12183,-5.30331 -23.38307,0.60408 -33.75773,-0.46438 -53.9169,1e-5 -14.72809,0.06 -27.52871,-1.46186 -37.1231,5.42957 -9.54003,8.88083 -6.22008,10.33625 -6.06091,26.89531 -1.58828,17.41164 0.32077,18.3442 -0.12628,36.36549 -0.75735,9.55472 6.23899,13.1098 12.50064,16.03618 18.11599,7.47643 23.79782,9.79485 41.66879,15.02601 12.85512,4.00364 26.60066,7.86744 31.441,13.38453 3.87995,2.59835 3.50731,13.2364 3.53553,13.88959 -0.17064,24.22312 1.6415,34.63881 1.6415,57.83123 0.22125,7.79433 -3.02241,15.94987 -9.09137,16.16244 -16.59305,-0.67298 -43.65355,0 -66.03872,0 -15.87013,-0.44097 -15.10895,-5.33596 -15.78364,-17.17259 0.6393,-22.82704 -1.19271,-46.84256 -1.01015,-64.64976 9.14395,-2.53196 24.19572,-2.02031 35.35534,-2.02031 -19.71132,1.73828 -40.74555,-18.73391 -48.10851,-29.16815 -6.85021,10.49911 -23.43614,25.47051 -40.0273,30.80966 10.56924,0.81379 21.60817,-0.90017 29.54696,0.7576 2.78048,8.94117 -1.09332,69.06329 -0.88388,76.64533 0.17386,23.11779 7.2792,25.15902 23.10724,25.50636 31.93279,1.39763 61.97001,1.79416 92.55523,-0.12628 z"
       id="path3339"
       inkscape:connector-curvature="0"
       sodipodi:nodetypes="cccccccccccccscccccccccccccccccccccccccccc" />
    <path
       style="fill:none;fill-rule:evenodd;stroke:#000000;stroke-width:1px;stroke-linecap:butt;stroke-linejoin:miter;stroke-opacity:1"
       d="m 114.59822,258.16577 c -1.29192,-1.05947 -1.16072,-6.02678 -1.16072,-6.02678 -0.064,-6.917 2.23835,-6.58125 9.64286,-6.5625 7.46007,0.0931 8.57142,0.17972 8.57142,6.74107 0,0 0.28311,4.58997 -0.9375,5.84821 -0.78711,1.17558 -2.45742,2.12531 -5.06008,3.71812 -0.91943,0.90187 -0.41486,4.80637 -0.40755,8.38004 -0.085,2.92653 -0.0855,3.46261 -0.57625,4.19966 -1.09137,0.69707 -0.71479,0.60379 -2.1608,0.65114 -1.48805,-0.0792 -1.73602,0.14942 -2.67146,-0.73405 -0.63135,-0.6137 -0.55243,-2.61636 -0.55243,-4.1613 0,0 0.0433,-5.66295 0,-8.25893 -1.73978,-1.70313 -2.83165,-1.74154 -4.68749,-3.79468 z"
       id="path3362"
       inkscape:connector-curvature="0"
       sodipodi:nodetypes="ccccccccccccc" />
  </g>
</svg>
